<svg width="400" height="400" viewBox="0 0 400 400" fill="none" xmlns="http://www.w3.org/2000/svg">
<path d="M241.417 60.1346C183.078 87.4672 95.3442 106.125 68.3699 108.698C41.3956 111.271 31.9998 119.247 28.9835 137.498C25.2131 160.313 49.7142 186.647 54.5307 231.981C59.3473 277.314 61.5471 319.467 81.2294 334.047C113.519 357.966 169.901 324.631 211.174 311.166C252.448 297.702 329.229 295.358 337.205 276.28C350.267 245.038 320.798 228.501 308.129 162.899C295.459 97.2968 299.755 32.8019 241.417 60.1346Z" fill="#DAFEFF"/>
<path d="M78.4538 201.242L78.3501 249.857L41.5807 249.779L77.8543 201.241L78.4538 201.242ZM78.3002 273.264L74.9429 301.911L78.2311 305.674L105.209 305.732L105.278 273.322L123.862 273.362L123.912 249.955L120.814 246.439L105.328 249.915L105.507 165.689L102.193 162.322L80.1285 165.635L19.2049 247.13L16.3552 269.628L19.1495 273.138L78.3002 273.264Z" fill="#009C9F"/>
<path d="M75.2569 197.612L75.1532 246.227L38.3838 246.148L74.6574 197.61L75.2569 197.612ZM75.1033 269.634L75.0341 302.044L102.012 302.101L102.081 269.691L120.665 269.731L120.715 246.324L102.131 246.284L102.31 162.059L76.9315 162.004L16.008 243.499L15.9525 269.507L75.1033 269.634Z" fill="#00B2B6"/>
<path d="M292.971 111.694L309.407 157.44L274.807 169.899L292.407 111.897L292.971 111.694ZM317.32 179.465L324.735 206.882L328.277 209.963L353.662 200.822L342.705 170.324L360.193 164.027L352.28 142.001L348.352 139.133L334.792 148.299L306.114 67.7478L302.481 66.3838L282.437 77.6429L252.867 175.035L257.972 196.424L261.66 199.508L317.32 179.465Z" fill="#009C9F"/>
<path d="M289.179 108.642L305.615 154.388L271.015 166.847L288.615 108.846L289.179 108.642ZM313.528 176.414L324.485 206.911L349.87 197.77L338.913 167.273L356.401 160.976L348.488 138.95L331 145.247L302.526 65.992L278.645 74.5914L249.076 171.984L257.868 196.457L313.528 176.414Z" fill="#00B2B6"/>
<g filter="url(#filter0_i)">
<ellipse rx="47.1786" ry="73.1399" transform="matrix(0.931206 0.364494 -0.363775 0.931487 182.135 196.268)" fill="url(#paint0_linear)"/>
</g>
<path d="M140.209 178.236C132.489 193.693 131.126 207.488 130.671 213.247L204.562 261.983C206.398 263.194 208.867 262.696 210.089 260.867L245.193 208.358C245.991 207.164 246.088 205.633 245.446 204.348L244.213 201.88L158.376 150.955C155.196 153.532 147.93 162.777 140.209 178.236Z" fill="#FFC01F"/>
<path d="M140.209 173.69C132.489 189.146 131.126 203.85 130.671 209.61L204.088 258.755C205.929 259.987 208.421 259.488 209.646 257.642L243.788 206.17C245.021 204.311 244.495 201.802 242.618 200.595L158.376 146.408C155.196 148.985 147.93 158.23 140.209 173.69Z" fill="#FFD66C"/>
<path d="M166.908 168.233L164.414 171.977L220.961 207.336L223.455 203.592L166.908 168.233Z" fill="#FFF5DD"/>
<path d="M160.517 177.327L158.056 181.047L181.028 195.514L183.489 191.794L160.517 177.327Z" fill="#FFF5DD"/>
<path d="M154.247 185.511L151.697 189.232L175.49 203.699L178.039 199.979L154.247 185.511Z" fill="#FFF5DD"/>
<path d="M148.09 195.514L142.614 203.513L166.205 218.249L171.681 210.25L148.09 195.514Z" fill="#FFF5DD"/>
<path d="M194.408 198.243L177.131 224.697L200.729 239.164L218.007 212.71L194.408 198.243Z" fill="#FFF5DD"/>
<g filter="url(#filter1_d)">
<path d="M174.633 258.614C174.019 256.903 175.055 255.043 176.832 254.665L239.473 241.364C241.991 240.829 243.969 243.511 242.716 245.762L201.719 319.398C200.466 321.648 197.147 321.375 196.277 318.949L174.633 258.614Z" fill="#FF835D"/>
</g>
<g filter="url(#filter2_d)">
<rect width="39.9899" height="39.9899" rx="3" transform="matrix(0.706704 -0.707509 0.706704 0.707509 243.305 300.195)" fill="#00B2B6"/>
</g>
<g filter="url(#filter3_d)">
<path d="M182.787 290.832C183.224 290.147 184.278 290.196 184.661 290.913C185.205 291.93 185.917 293.124 186.527 293.694C187.206 294.328 188.784 295.256 189.993 295.926C190.675 296.303 190.712 297.29 190.054 297.707C188.73 298.545 186.961 299.693 186.604 300.059C186.268 300.404 185.451 301.835 184.818 302.987C184.444 303.667 183.463 303.702 183.029 303.059C182.329 302.02 181.384 300.714 180.7 300.131C179.982 299.518 178.566 298.53 177.518 297.818C176.915 297.409 176.923 296.506 177.529 296.1C178.557 295.412 179.928 294.449 180.623 293.765C181.262 293.137 182.123 291.874 182.787 290.832Z" fill="white"/>
</g>
<g filter="url(#filter4_d)">
<path d="M313.433 237.497C314.121 237.927 314.082 238.983 313.37 239.373C312.359 239.927 311.173 240.651 310.61 241.267C309.982 241.953 309.07 243.541 308.413 244.758C308.042 245.444 307.057 245.491 306.634 244.835C305.784 243.518 304.622 241.757 304.253 241.403C303.905 241.07 302.468 240.265 301.311 239.642C300.628 239.275 300.584 238.293 301.222 237.853C302.254 237.142 303.549 236.184 304.126 235.494C304.731 234.769 305.704 233.343 306.406 232.286C306.809 231.679 307.711 231.678 308.122 232.281C308.819 233.304 309.794 234.667 310.483 235.357C311.116 235.991 312.386 236.841 313.433 237.497Z" fill="white"/>
</g>
<g filter="url(#filter5_d)">
<path d="M107.428 138.215C107.31 139.018 106.328 139.405 105.685 138.908C104.773 138.203 103.635 137.406 102.846 137.137C101.967 136.836 100.149 136.637 98.7715 136.522C97.9943 136.457 97.5562 135.572 97.9864 134.922C98.851 133.615 99.9957 131.842 100.172 131.362C100.337 130.909 100.497 129.268 100.603 127.957C100.666 127.183 101.547 126.75 102.206 127.159C103.27 127.819 104.665 128.623 105.528 128.875C106.434 129.139 108.129 129.46 109.377 129.679C110.095 129.806 110.457 130.633 110.071 131.251C109.415 132.3 108.558 133.742 108.203 134.65C107.877 135.485 107.608 136.992 107.428 138.215Z" fill="white"/>
</g>
<ellipse rx="17.2592" ry="17.2775" transform="matrix(-0.985641 -0.168852 0.168479 -0.985705 54.4434 380.055)" fill="url(#paint1_linear)"/>
<ellipse rx="26.3447" ry="26.3374" transform="matrix(0.61404 0.789275 -0.788781 0.614675 356.685 37.8912)" fill="url(#paint2_linear)"/>
<defs>
<filter id="filter0_i" x="130.766" y="125.986" width="102.738" height="144.565" filterUnits="userSpaceOnUse" color-interpolation-filters="sRGB">
<feFlood flood-opacity="0" result="BackgroundImageFix"/>
<feBlend mode="normal" in="SourceGraphic" in2="BackgroundImageFix" result="shape"/>
<feColorMatrix in="SourceAlpha" type="matrix" values="0 0 0 0 0 0 0 0 0 0 0 0 0 0 0 0 0 0 127 0" result="hardAlpha"/>
<feOffset dy="4"/>
<feGaussianBlur stdDeviation="2"/>
<feComposite in2="hardAlpha" operator="arithmetic" k2="-1" k3="1"/>
<feColorMatrix type="matrix" values="0 0 0 0 0 0 0 0 0 0 0 0 0 0 0 0 0 0 0.25 0"/>
<feBlend mode="normal" in2="shape" result="effect1_innerShadow"/>
</filter>
<filter id="filter1_d" x="159.456" y="234.295" width="98.6476" height="109.643" filterUnits="userSpaceOnUse" color-interpolation-filters="sRGB">
<feFlood flood-opacity="0" result="BackgroundImageFix"/>
<feColorMatrix in="SourceAlpha" type="matrix" values="0 0 0 0 0 0 0 0 0 0 0 0 0 0 0 0 0 0 127 0"/>
<feOffset dy="8"/>
<feGaussianBlur stdDeviation="7.5"/>
<feColorMatrix type="matrix" values="0 0 0 0 0 0 0 0 0 0.342308 0 0 0 0 0.35 0 0 0 0.2 0"/>
<feBlend mode="normal" in2="BackgroundImageFix" result="effect1_dropShadow"/>
<feBlend mode="normal" in="SourceGraphic" in2="effect1_dropShadow" result="shape"/>
</filter>
<filter id="filter2_d" x="224.546" y="261.145" width="94.0382" height="94.0997" filterUnits="userSpaceOnUse" color-interpolation-filters="sRGB">
<feFlood flood-opacity="0" result="BackgroundImageFix"/>
<feColorMatrix in="SourceAlpha" type="matrix" values="0 0 0 0 0 0 0 0 0 0 0 0 0 0 0 0 0 0 127 0"/>
<feOffset dy="8"/>
<feGaussianBlur stdDeviation="10"/>
<feColorMatrix type="matrix" values="0 0 0 0 0 0 0 0 0 0.342308 0 0 0 0 0.35 0 0 0 0.2 0"/>
<feBlend mode="normal" in2="BackgroundImageFix" result="effect1_dropShadow"/>
<feBlend mode="normal" in="SourceGraphic" in2="effect1_dropShadow" result="shape"/>
</filter>
<filter id="filter3_d" x="167.07" y="284.345" width="33.4571" height="33.1748" filterUnits="userSpaceOnUse" color-interpolation-filters="sRGB">
<feFlood flood-opacity="0" result="BackgroundImageFix"/>
<feColorMatrix in="SourceAlpha" type="matrix" values="0 0 0 0 0 0 0 0 0 0 0 0 0 0 0 0 0 0 127 0"/>
<feOffset dy="4"/>
<feGaussianBlur stdDeviation="5"/>
<feColorMatrix type="matrix" values="0 0 0 0 0 0 0 0 0 0.698039 0 0 0 0 0.713726 0 0 0 0.1 0"/>
<feBlend mode="normal" in2="BackgroundImageFix" result="effect1_dropShadow"/>
<feBlend mode="normal" in="SourceGraphic" in2="effect1_dropShadow" result="shape"/>
</filter>
<filter id="filter4_d" x="290.77" y="225.83" width="33.1574" height="33.4708" filterUnits="userSpaceOnUse" color-interpolation-filters="sRGB">
<feFlood flood-opacity="0" result="BackgroundImageFix"/>
<feColorMatrix in="SourceAlpha" type="matrix" values="0 0 0 0 0 0 0 0 0 0 0 0 0 0 0 0 0 0 127 0"/>
<feOffset dy="4"/>
<feGaussianBlur stdDeviation="5"/>
<feColorMatrix type="matrix" values="0 0 0 0 0 0 0 0 0 0.698039 0 0 0 0 0.713726 0 0 0 0.1 0"/>
<feBlend mode="normal" in2="BackgroundImageFix" result="effect1_dropShadow"/>
<feBlend mode="normal" in="SourceGraphic" in2="effect1_dropShadow" result="shape"/>
</filter>
<filter id="filter5_d" x="87.8174" y="121.002" width="32.4105" height="32.1275" filterUnits="userSpaceOnUse" color-interpolation-filters="sRGB">
<feFlood flood-opacity="0" result="BackgroundImageFix"/>
<feColorMatrix in="SourceAlpha" type="matrix" values="0 0 0 0 0 0 0 0 0 0 0 0 0 0 0 0 0 0 127 0"/>
<feOffset dy="4"/>
<feGaussianBlur stdDeviation="5"/>
<feColorMatrix type="matrix" values="0 0 0 0 0 0 0 0 0 0.698039 0 0 0 0 0.713726 0 0 0 0.1 0"/>
<feBlend mode="normal" in2="BackgroundImageFix" result="effect1_dropShadow"/>
<feBlend mode="normal" in="SourceGraphic" in2="effect1_dropShadow" result="shape"/>
</filter>
<linearGradient id="paint0_linear" x1="1.68286" y1="45.2287" x2="95.9569" y2="49.335" gradientUnits="userSpaceOnUse">
<stop stop-color="#0C2132"/>
<stop offset="1" stop-color="#53626D"/>
</linearGradient>
<linearGradient id="paint1_linear" x1="17.2592" y1="0" x2="17.2592" y2="34.555" gradientUnits="userSpaceOnUse">
<stop stop-color="#4FD9DC"/>
<stop offset="1" stop-color="#00B2B6" stop-opacity="0"/>
</linearGradient>
<linearGradient id="paint2_linear" x1="26.3447" y1="0" x2="26.3447" y2="52.6749" gradientUnits="userSpaceOnUse">
<stop stop-color="#C3ECED"/>
<stop offset="1" stop-color="white" stop-opacity="0"/>
</linearGradient>
</defs>
</svg>
