<svg xmlns="http://www.w3.org/2000/svg" data-name="Layer 1" viewBox="0 0 887.8 772.8">
  <defs/>
  <path fill="#e6e6e6" d="M887.8 763.3l-635.5 9.5L0 728.1h393.8l494 35.2z"/>
  <circle cx="731.8" cy="101.7" r="101.7" fill="#ff6584"/>
  <path fill="#3f3d56" d="M179.8 733.4s1.5-31.1 32-27.5"/>
  <circle cx="171.2" cy="688.5" r="15.3" fill="#00b2b6"/>
  <path fill="#3f3d56" d="M168.7 714.2h4.3v30.1h-4.3zM682.3 738.8s1.5-31.2 32-27.6"/>
  <circle cx="673.7" cy="693.8" r="15.3" fill="#00b2b6"/>
  <path fill="#3f3d56" d="M671.2 719.5h4.3v30.1h-4.3zM755.7 744s1.5-31 32-27.5"/>
  <circle cx="747.1" cy="699.2" r="15.3" fill="#00b2b6"/>
  <path fill="#3f3d56" d="M744.6 724.9h4.3V755h-4.3zM300.1 718.5s1.5-31.1 32-27.5"/>
  <circle cx="291.5" cy="673.6" r="15.3" fill="#00b2b6"/>
  <path fill="#3f3d56" d="M289 699.3h4.3v30.1H289zM73.4 723.9s1.5-31.2 32-27.6"/>
  <circle cx="64.8" cy="678.9" r="15.3" fill="#00b2b6"/>
  <path fill="#3f3d56" d="M62.3 704.6h4.3v30.1h-4.3z"/>
  <circle cx="442.3" cy="503.5" r="166.2" fill="#3f3d56"/>
  <path fill="#fff" d="M337.6 516.8a44 44 0 0167.5 0 48.9 48.9 0 10-67.5 0zM469.6 516.8a44 44 0 0167.5 0 48.9 48.9 0 10-67.5 0z"/>
  <circle cx="354.7" cy="464.8" r="16.8" fill="#3f3d56"/>
  <circle cx="486.7" cy="464.8" r="16.8" fill="#3f3d56"/>
  <circle cx="322.5" cy="545" r="19.6" fill="#ff6584"/>
  <circle cx="547.4" cy="545" r="19.6" fill="#ff6584"/>
  <path fill="#ff6584" d="M434.9 505.9l-14.6 63.6 24.4-24.5-9.8-39.1z"/>
  <path fill="#3f3d56" d="M510.3 750.4l-16.6-14 .3 14h-5.1l-.4-14.8-22.5 14.8h-9.4l31.7-20.9-1.2-43.8-1-33 5.2-.2.9 33.2 1.3 43.8 24.8 20.9h-8zM432.1 750.4l-16.7-14 .4 14h-5.1l-.5-14.8-22.4 14.8h-9.5l31.8-20.9-1.3-43.8-.9-33 5.2-.2.9 33.2 1.2 43.8 24.9 20.9h-8zM444.7 325c-4.5 0-8.6 3.6-11.3 9-2.3-8.2-7.3-13.9-13.1-13.9a8.8 8.8 0 00-1.2.2c-2.2-8.7-7.4-14.8-13.5-14.8-8 0-14.7 11-14.7 24.4s6.6 24.5 14.7 24.5a8.8 8.8 0 001.2-.2c2.2 8.7 7.4 14.8 13.5 14.8 4.5 0 8.6-3.5 11.3-9 2.3 8.2 7.3 14 13.1 14 8.1 0 14.7-11 14.7-24.5s-6.6-24.5-14.7-24.5z"/>
  <path fill="#00b2b6" d="M286.3 566.5a48.9 48.9 0 01-49-49v-24.4a48.9 48.9 0 0149-48.9v122.3zM598.3 444.2a48.9 48.9 0 0148.9 49v24.4a48.9 48.9 0 01-48.9 48.9V444.2z"/>
  <path fill="#00b2b6" d="M624 497h-7.8c0-98.4-80-178.4-178.4-178.4s-178.5 80-178.5 178.4h-7.7a186.4 186.4 0 01186.2-186.2A186.4 186.4 0 01623.9 497z"/>
  <path fill="#3f3d56" d="M131.7 368zM171.5 347.5L168 346l-15.4-6.5-5.5-2.4-.4 1-7.4 18.8 20.8 8.8.1.1-1.4 3.3a5.9 5.9 0 00-.5 1c-1 2.5 1 5 2.7 5.6s4-.7 5-3.2c.9-2.5 0-5.6-1.8-6.3l-3.6-1.6-12.5-4.8 7.2-18-1.1-.4-7.1 18-1.6-.6 7.2-18h.2l14.6 6.2.1.1-1.4 3.3a5.9 5.9 0 00-.5 1c-1 2.5 1 5 2.7 5.6s4-.7 5-3.2 0-5.6-1.8-6.3zM243.7 393.4c-7.6-4.4-6-13.8-6-13.8-.3-6.2-5.4-5.3-5.4-5.3l-1.8.4a5.6 5.6 0 00-2.8-.5l-2.8.4c6.4 1.6 5.9 7 5.9 7l.9 6.2-16.8-6.8 1.9-4.5a8.1 8.1 0 00.7-1.4c1.3-3.4-1.2-6.8-3.7-7.8-2.4-1-5.5 1-6.9 4.5-1.3 3.4 0 7.7 2.4 8.8l5 2zm-8.6-11l.6 6a13.9 13.9 0 01-2.6-9.3 5.8 5.8 0 00-1-3.2 6.8 6.8 0 013 6.4zM115.3 304.5l-5-2.2-21.2-8.2 5.3-4.7a6.7 6.7 0 019.3-1.5l-1.7-2.5s-3.1-4.1-7.5.2c0 0-5.4 8-13.8 6l28.9 12.2.2.1-2 4.6a8.1 8.1 0 00-.7 1.4c-1.3 3.4 1.2 6.9 3.7 7.8s5.5-1 6.9-4.5c1.3-3.4 0-7.7-2.4-8.7zM192.8 277.5l-2 4.6a8.1 8.1 0 00-.7 1.4c-1.3 3.4 1.2 6.8 3.7 7.8s5.5-1 6.9-4.5c1.3-3.4 0-7.7-2.4-8.8l-5-2-17.3-6.8 9.9-25-1.5-.6-10 25-2-.8 9.9-25h.2l20.4 8.6.1.2-1.9 4.6a8.1 8.1 0 00-.7 1.3c-1.3 3.5 1.2 6.9 3.7 7.8s5.5-1 6.9-4.4c1.3-3.4 0-7.8-2.4-8.8l-5-2.1-20.7-8.8-.7-.3-7.7-3.2-10.8 27.5 29 12.2zM174 239.2zM101 137l-8.7-3.7L56 119.2l9.2-8.2s6.1-8.5 15.9-2.6l-2.9-4.2s-5.3-7.1-12.8.4c0 0-9.3 13.7-24 10.2l50 21 .2.3-3.4 8a14 14 0 00-1.2 2.2c-2.3 6 2.1 11.8 6.3 13.5s9.5-1.8 11.9-7.7c2.3-5.9 0-13.3-4-15.1zM127.8 255.9c-18-10.4-14.5-33-14.5-33-.4-14.8-12.6-12.7-12.6-12.7l-4.4 1a13.5 13.5 0 00-6.6-1.2l-6.8 1.1c15.4 3.6 14.1 16.5 14.1 16.5l2.2 15-40.3-16.2 4.7-11a19.5 19.5 0 001.6-3.1c3.3-8.2-3-16.4-8.7-18.8S43.2 196 40 204.3c-3.2 8.1 0 18.5 5.6 21l12 5 .2-.3zm-20.4-26.4l1.3 14.4c-7.6-10-6-22-6-22a14 14 0 00-2.8-7.8c8.7 5.3 7.5 15.4 7.5 15.4z"/>
</svg>
