<svg width="110" height="24" viewBox="0 0 110 24" fill="none" xmlns="http://www.w3.org/2000/svg">
<g clip-path="url(#clip0)">
<path d="M22.3235 20.7253C22.4027 20.5543 22.2765 20.3559 22.0859 20.3584L14.62 20.4105C13.9395 20.4129 13.5287 19.7436 13.8182 19.099L14.3874 17.8198H3.06096L1.14311 21.9202C0.670459 22.9317 1.30644 24.0002 2.87536 24.0002H20.8981C20.6556 24.0002 20.8833 23.8539 20.9897 23.6234L22.3235 20.7253Z" fill="#123046"/>
<path d="M36.5774 0H4.41211L7.94341 1.85683C9.09412 2.5361 9.48759 4.0062 8.8714 5.32259L7.31238 8.65696H18.4532L20.3859 4.31608C20.5641 3.91447 20.9699 3.64425 21.3931 3.64425H27.008C27.6984 3.64425 28.1043 4.33592 27.7949 4.98296L26.7482 7.16703C26.4364 7.81407 26.8422 8.50573 27.5351 8.50573H34.1498C34.568 8.50573 34.9689 8.24295 35.152 7.84878L37.8172 2.07003C38.2849 1.06353 37.6489 0 36.5774 0Z" fill="#123046"/>
<path d="M0.645775 16.2827H17.9311C18.1835 16.2827 18.4112 16.1365 18.5176 15.9059L20.7646 10.9949C20.9601 10.566 20.6482 10.0801 20.1781 10.0801H2.89274C2.64033 10.0801 2.41266 10.2263 2.30625 10.4569L0.0592864 15.3655C-0.13621 15.7944 0.175594 16.2827 0.645775 16.2827Z" fill="#00B2B6"/>
<path d="M54.3181 23.9999H46.6467C44.1869 23.9999 42.1924 22.0017 42.1924 19.5375V11.6044C42.1924 9.14023 44.1869 7.14209 46.6467 7.14209H54.3181C56.7779 7.14209 58.7724 9.14023 58.7724 11.6044V12.4721C58.7724 12.8836 58.4408 13.2158 58.0301 13.2158H56.0503C55.6396 13.2158 55.308 12.8836 55.308 12.4721V11.9143C55.308 11.1954 54.7264 10.6128 54.0088 10.6128H46.9561C46.2384 10.6128 45.6569 11.1954 45.6569 11.9143V19.2276C45.6569 19.9466 46.2384 20.5291 46.9561 20.5291H54.0088C54.7264 20.5291 55.308 19.9466 55.308 19.2276V17.9261C55.308 17.5146 55.6396 17.1824 56.0503 17.1824H58.0301C58.4408 17.1824 58.7724 17.5146 58.7724 17.9261V19.5375C58.7724 22.0017 56.7779 23.9999 54.3181 23.9999Z" fill="#123046"/>
<path d="M70.7746 23.9999H65.5779C63.1181 23.9999 61.1235 22.0018 61.1235 19.5376V14.3315C61.1235 11.8673 63.1181 9.86914 65.5779 9.86914H70.7746C73.2344 9.86914 75.229 11.8673 75.229 14.3315V19.5376C75.229 22.0018 73.2344 23.9999 70.7746 23.9999ZM66.0728 20.5292H70.2797C71.0988 20.5292 71.7645 19.8623 71.7645 19.0417V14.8273C71.7645 14.0067 71.0988 13.3399 70.2797 13.3399H66.0728C65.2537 13.3399 64.588 14.0067 64.588 14.8273V19.0417C64.588 19.8623 65.2537 20.5292 66.0728 20.5292Z" fill="#123046"/>
<path d="M79.9307 23.9999H78.4459C77.899 23.9999 77.4561 23.5561 77.4561 23.0082V8.13372C77.4561 7.58585 77.899 7.14209 78.4459 7.14209H79.9307C80.4776 7.14209 80.9205 7.58585 80.9205 8.13372V23.0082C80.9205 23.5561 80.4776 23.9999 79.9307 23.9999Z" fill="#123046"/>
<path d="M86.6123 23.9999H85.1275C84.5807 23.9999 84.1377 23.5561 84.1377 23.0082V8.13372C84.1377 7.58585 84.5807 7.14209 85.1275 7.14209H86.6123C87.1592 7.14209 87.6022 7.58585 87.6022 8.13372V23.0082C87.6022 23.5561 87.1592 23.9999 86.6123 23.9999Z" fill="#123046"/>
<path d="M93.2935 23.9999H91.8087C91.2618 23.9999 90.8188 23.6231 90.8188 23.1578V12H94.2833V23.1578C94.2833 23.6231 93.8404 23.9999 93.2935 23.9999Z" fill="#123046"/>
<path d="M94.2833 10H90.8188V7.63791C90.8188 7.36521 91.0416 7.14209 91.3138 7.14209H93.7884C94.0606 7.14209 94.2833 7.36521 94.2833 7.63791V10Z" fill="#123046"/>
<path d="M109.089 23.4496C108.921 23.7868 108.58 24 108.203 24H99.8516C98.4856 24 97.377 22.8794 97.377 21.4986V12.4946C97.377 11.1137 98.4856 9.99316 99.8516 9.99316H107.295C108.661 9.99316 109.77 11.1137 109.77 12.4946V16.0669C109.77 17.4478 108.661 18.5683 107.295 18.5683H101.089C100.817 18.5683 100.594 18.7914 100.594 19.0641V20.7474C100.594 21.0226 100.819 21.2482 101.094 21.2482H109.505C109.871 21.2482 110.111 21.6349 109.948 21.9647L109.089 23.4496ZM101.094 16.062H106.06C106.333 16.062 106.555 15.8388 106.555 15.5661V13.4961C106.555 13.2209 106.33 12.9953 106.055 12.9953H101.089C100.817 12.9953 100.594 13.2184 100.594 13.4911V15.5612C100.594 15.8364 100.819 16.062 101.094 16.062Z" fill="#123046"/>
</g>
<defs>
<clipPath id="clip0">
<rect width="110" height="24" fill="white"/>
</clipPath>
</defs>
</svg>
