<svg width="101" height="22" viewBox="0 0 101 22" fill="none" xmlns="http://www.w3.org/2000/svg">
<g clip-path="url(#clip0)">
<path d="M20.497 18.9981C20.5697 18.8413 20.4538 18.6595 20.2789 18.6618L13.4238 18.7095C12.7989 18.7117 12.4217 18.0982 12.6876 17.5073L13.2102 16.3347H2.81048L1.04955 20.0934C0.615568 21.0206 1.19951 22 2.64007 22H19.1882C18.9656 22 19.1746 21.866 19.2723 21.6546L20.497 18.9981Z" fill="white"/>
<path d="M33.5849 0H4.05127L7.29365 1.7021C8.3502 2.32476 8.71148 3.67235 8.14571 4.87904L6.71425 7.93554H16.9435L18.7181 3.95641C18.8817 3.58827 19.2543 3.34056 19.6429 3.34056H24.7984C25.4323 3.34056 25.805 3.97459 25.521 4.56771L24.5598 6.56978C24.2735 7.1629 24.6462 7.79692 25.2824 7.79692H31.3559C31.7399 7.79692 32.108 7.55604 32.2761 7.19471L34.7232 1.89753C35.1527 0.974899 34.5687 0 33.5849 0Z" fill="white"/>
<path d="M0.592939 14.9258H16.464C16.6958 14.9258 16.9048 14.7917 17.0025 14.5803L19.0656 10.0785C19.2451 9.6854 18.9588 9.23999 18.5271 9.23999H2.65606C2.4243 9.23999 2.21526 9.37407 2.11756 9.58541L0.0544357 14.0849C-0.125065 14.4781 0.161227 14.9258 0.592939 14.9258Z" fill="white"/>
<path d="M49.8738 21.9999H42.8301C40.5716 21.9999 38.7402 20.1683 38.7402 17.9095V10.6375C38.7402 8.37863 40.5716 6.547 42.8301 6.547H49.8738C52.1324 6.547 53.9637 8.37863 53.9637 10.6375V11.4329C53.9637 11.8101 53.6593 12.1146 53.2821 12.1146H51.4644C51.0872 12.1146 50.7827 11.8101 50.7827 11.4329V10.9215C50.7827 10.2625 50.2488 9.72849 49.5898 9.72849H43.1142C42.4552 9.72849 41.9213 10.2625 41.9213 10.9215V17.6254C41.9213 18.2844 42.4552 18.8185 43.1142 18.8185H49.5898C50.2488 18.8185 50.7827 18.2844 50.7827 17.6254V16.4323C50.7827 16.0551 51.0872 15.7506 51.4644 15.7506H53.2821C53.6593 15.7506 53.9637 16.0551 53.9637 16.4323V17.9095C53.9637 20.1683 52.1324 21.9999 49.8738 21.9999Z" fill="white"/>
<path d="M64.984 22H60.2125C57.9539 22 56.1226 20.1683 56.1226 17.9095V13.1372C56.1226 10.8784 57.9539 9.04675 60.2125 9.04675H64.984C67.2425 9.04675 69.0739 10.8784 69.0739 13.1372V17.9095C69.0739 20.1683 67.2425 22 64.984 22ZM60.6669 18.8185H64.5296C65.2817 18.8185 65.8929 18.2072 65.8929 17.455V13.5917C65.8929 12.8395 65.2817 12.2282 64.5296 12.2282H60.6669C59.9148 12.2282 59.3036 12.8395 59.3036 13.5917V17.455C59.3036 18.2072 59.9148 18.8185 60.6669 18.8185Z" fill="white"/>
<path d="M73.3908 21.9999H72.0275C71.5254 21.9999 71.1187 21.5932 71.1187 21.091V7.45599C71.1187 6.95377 71.5254 6.547 72.0275 6.547H73.3908C73.893 6.547 74.2997 6.95377 74.2997 7.45599V21.091C74.2997 21.5932 73.893 21.9999 73.3908 21.9999Z" fill="white"/>
<path d="M79.5256 21.9999H78.1623C77.6601 21.9999 77.2534 21.5932 77.2534 21.091V7.45599C77.2534 6.95377 77.6601 6.547 78.1623 6.547H79.5256C80.0277 6.547 80.4344 6.95377 80.4344 7.45599V21.091C80.4344 21.5932 80.0277 21.9999 79.5256 21.9999Z" fill="white"/>
<path d="M85.6603 21.9999H84.297C83.7949 21.9999 83.3882 21.6545 83.3882 21.228V11H86.5692V21.228C86.5692 21.6545 86.1625 21.9999 85.6603 21.9999Z" fill="white"/>
<path d="M86.5692 9.16675H83.3882V7.0015C83.3882 6.75152 83.5927 6.547 83.8426 6.547H86.1148C86.3647 6.547 86.5692 6.75152 86.5692 7.0015V9.16675Z" fill="white"/>
<path d="M100.164 21.4955C100.009 21.8045 99.6958 22 99.3504 22H91.6818C90.4276 22 89.4097 20.9728 89.4097 19.707V11.4533C89.4097 10.1876 90.4276 9.1604 91.6818 9.1604H98.5165C99.7707 9.1604 100.789 10.1876 100.789 11.4533V14.728C100.789 15.9938 99.7707 17.021 98.5165 17.021H92.8179C92.568 17.021 92.3635 17.2255 92.3635 17.4754V19.0185C92.3635 19.2707 92.5702 19.4775 92.8225 19.4775H100.546C100.882 19.4775 101.102 19.832 100.952 20.1343L100.164 21.4955ZM92.8225 14.7235H97.3827C97.6326 14.7235 97.8371 14.5189 97.8371 14.269V12.3714C97.8371 12.1192 97.6304 11.9124 97.3781 11.9124H92.8179C92.568 11.9124 92.3635 12.1169 92.3635 12.3669V14.2644C92.3635 14.5167 92.5702 14.7235 92.8225 14.7235Z" fill="white"/>
</g>
<defs>
<clipPath id="clip0">
<rect width="101" height="22" fill="white"/>
</clipPath>
</defs>
</svg>
