<?xml version="1.0" encoding="utf-8"?>
<svg xmlns="http://www.w3.org/2000/svg">
<symbol id="btn-add-h" viewBox="0 0 24 24">
<path d="M5 12H19" stroke="white" stroke-width="1.4" stroke-linecap="round"/>
<path d="M12 19V5" stroke="white" stroke-width="1.4" stroke-linecap="round"/>

</symbol>
<symbol id="btn-edit-h" viewBox="0 0 24 24">
<path d="M18.8396 17.9521C19.0467 17.9521 19.2454 18.0344 19.3918 18.1809C19.5383 18.3273 19.6206 18.526 19.6206 18.7331C19.6206 18.9403 19.5383 19.1389 19.3918 19.2854C19.2454 19.4319 19.0467 19.5142 18.8396 19.5142H5.78103C5.57389 19.5142 5.37523 19.4319 5.22876 19.2854C5.08229 19.1389 5 18.9403 5 18.7331C5 18.526 5.08229 18.3273 5.22876 18.1809C5.37523 18.0344 5.57389 17.9521 5.78103 17.9521H18.8396ZM14.8954 3.74362L18.2085 7.05674C18.3549 7.20321 18.4372 7.40183 18.4372 7.60893C18.4372 7.81603 18.3549 8.01465 18.2085 8.16112L10.4763 15.8933C10.357 16.0127 10.2021 16.0903 10.035 16.1143L6.16892 16.6665C6.049 16.6835 5.92677 16.6723 5.81191 16.6339C5.69704 16.5955 5.59269 16.5309 5.50708 16.4452C5.42148 16.3595 5.35698 16.2551 5.31867 16.1402C5.28036 16.0253 5.2693 15.9031 5.28636 15.7832L5.83776 11.9171C5.86164 11.7497 5.93921 11.5946 6.05879 11.475L13.791 3.74283C13.9374 3.59641 14.1361 3.51416 14.3432 3.51416C14.5503 3.51416 14.7489 3.5972 14.8954 3.74362ZM14.3432 5.3994L7.34749 12.3959L6.97963 14.9733L9.55702 14.6046L16.5519 7.60893L14.3432 5.3994Z" fill="#FF9C7C"/>

</symbol>
<symbol id="btn-history-h" viewBox="0 0 24 24">
<path d="M12 20C7.58906 20 4 16.4109 4 12C4 7.58906 7.58906 4 12 4C16.4109 4 20 7.58906 20 12C20 16.4109 16.4109 20 12 20ZM12 5.33281C8.32344 5.33281 5.33281 8.32344 5.33281 12C5.33281 15.6766 8.32344 18.6672 12 18.6672C15.6766 18.6672 18.6672 15.6766 18.6672 12C18.6672 8.32344 15.6766 5.33281 12 5.33281Z" fill="#FFBB0B"/>
<path d="M15 15.6671C14.85 15.6671 14.6984 15.6171 14.5734 15.5125L11.5734 12.8453C11.4218 12.7187 11.3328 12.5312 11.3328 12.3328V8.99995C11.3328 8.6312 11.6312 8.33276 12 8.33276C12.3687 8.33276 12.6671 8.6312 12.6671 8.99995V12.0218L15.4265 14.489C15.7093 14.725 15.7468 15.1453 15.5125 15.4281C15.3796 15.5843 15.1906 15.6671 15 15.6671Z" fill="#FFBB0B"/>

</symbol>
<symbol id="btn-logout-h" viewBox="0 0 24 24">
<path fill-rule="evenodd" clip-rule="evenodd" d="M5.00005 9.30005C5.38665 9.30005 5.70005 9.61345 5.70005 10V17.3H18.3V10C18.3 9.61345 18.6134 9.30005 19 9.30005C19.3866 9.30005 19.7 9.61345 19.7 10V18.7H4.30005V10C4.30005 9.61345 4.61345 9.30005 5.00005 9.30005Z"/>
<path fill-rule="evenodd" clip-rule="evenodd" d="M12 6.30005C12.3866 6.30005 12.7 6.61345 12.7 7.00005V14C12.7 14.3866 12.3866 14.7 12 14.7C11.6134 14.7 11.3 14.3866 11.3 14V7.00005C11.3 6.61345 11.6134 6.30005 12 6.30005Z"/>
<path d="M9.01213 7.48787L11.7879 4.71213C11.905 4.59497 12.095 4.59497 12.2121 4.71213L14.9879 7.48787C15.1769 7.67686 15.043 8 14.7757 8H9.22426C8.95699 8 8.82314 7.67686 9.01213 7.48787Z"/>

</symbol>
<symbol id="btn-revise-h" viewBox="0 0 24 24">
<path d="M18.8396 17.9522C19.0467 17.9522 19.2454 18.0345 19.3918 18.181C19.5383 18.3275 19.6206 18.5261 19.6206 18.7333C19.6206 18.9404 19.5383 19.1391 19.3918 19.2855C19.2454 19.432 19.0467 19.5143 18.8396 19.5143H5.78103C5.57389 19.5143 5.37523 19.432 5.22876 19.2855C5.08229 19.1391 5 18.9404 5 18.7333C5 18.5261 5.08229 18.3275 5.22876 18.181C5.37523 18.0345 5.57389 17.9522 5.78103 17.9522H18.8396ZM14.8954 3.74374L18.2085 7.05686C18.3549 7.20333 18.4372 7.40195 18.4372 7.60905C18.4372 7.81615 18.3549 8.01477 18.2085 8.16124L10.4763 15.8934C10.357 16.0129 10.2021 16.0904 10.035 16.1145L6.16892 16.6666C6.049 16.6836 5.92677 16.6724 5.81191 16.634C5.69704 16.5956 5.59269 16.531 5.50708 16.4453C5.42148 16.3597 5.35698 16.2552 5.31867 16.1403C5.28036 16.0254 5.2693 15.9032 5.28636 15.7833L5.83776 11.9172C5.86164 11.7498 5.93921 11.5947 6.05879 11.4751L13.791 3.74296C13.9374 3.59654 14.1361 3.51428 14.3432 3.51428C14.5503 3.51428 14.7489 3.59732 14.8954 3.74374ZM14.3432 5.39952L7.34749 12.396L6.97963 14.9734L9.55702 14.6047L16.5519 7.60905L14.3432 5.39952Z" fill="#FF9C7C"/>

</symbol>
<symbol id="btn-sell-h" viewBox="0 0 24 24">
<path fill-rule="evenodd" clip-rule="evenodd" d="M18 8.4H6C5.66863 8.4 5.4 8.66863 5.4 9V17.2353C5.4 17.5667 5.66863 17.8353 6 17.8353H18C18.3314 17.8353 18.6 17.5667 18.6 17.2353V9C18.6 8.66863 18.3314 8.4 18 8.4ZM6 7C4.89543 7 4 7.89543 4 9V17.2353C4 18.3399 4.89543 19.2353 6 19.2353H18C19.1046 19.2353 20 18.3399 20 17.2353V9C20 7.89543 19.1046 7 18 7H6Z" fill="#FFBB0B"/>
<path fill-rule="evenodd" clip-rule="evenodd" d="M8.4142 5.70005C8.33464 5.70005 8.25833 5.73166 8.20207 5.78792L5.99496 7.99502C5.7216 8.26839 5.27838 8.26839 5.00501 7.99502C4.73165 7.72166 4.73165 7.27844 5.00501 7.00507L7.21212 4.79797C7.53093 4.47915 7.96333 4.30005 8.4142 4.30005H15.5858C16.0366 4.30005 16.469 4.47916 16.7879 4.79797L18.995 7.00507C19.2683 7.27844 19.2683 7.72166 18.995 7.99502C18.7216 8.26839 18.2784 8.26839 18.005 7.99502L15.7979 5.78792C15.7416 5.73166 15.6653 5.70005 15.5858 5.70005H8.4142Z" fill="#FFBB0B"/>
<path fill-rule="evenodd" clip-rule="evenodd" d="M12 10.3C12.3866 10.3 12.7 10.6134 12.7 11V16C12.7 16.3866 12.3866 16.7 12 16.7C11.6134 16.7 11.3 16.3866 11.3 16V11C11.3 10.6134 11.6134 10.3 12 10.3Z" fill="#FFBB0B"/>
<path fill-rule="evenodd" clip-rule="evenodd" d="M12 10.01L14.495 12.505C14.7683 12.7784 14.7683 13.2216 14.495 13.4949C14.2216 13.7683 13.7784 13.7683 13.505 13.4949L12 11.9899L10.495 13.4949C10.2216 13.7683 9.77838 13.7683 9.50501 13.4949C9.23165 13.2216 9.23165 12.7784 9.50501 12.505L12 10.01Z" fill="#FFBB0B"/>

</symbol>
<symbol id="btn-stock-h" viewBox="0 0 24 24">
<path fill-rule="evenodd" clip-rule="evenodd" d="M4.79993 8.50005C4.79993 7.56117 5.56104 6.80005 6.49993 6.80005H18.9999C19.9388 6.80005 20.6999 7.56116 20.6999 8.50005V12H19.2999V8.50005C19.2999 8.33436 19.1656 8.20005 18.9999 8.20005H6.49993C6.33424 8.20005 6.19993 8.33436 6.19993 8.50005V18.5C6.19993 18.6657 6.33424 18.8 6.49993 18.8H13.5714V20.2H6.49993C5.56104 20.2 4.79993 19.4389 4.79993 18.5V8.50005Z" fill="#00B2B6"/>
<path fill-rule="evenodd" clip-rule="evenodd" d="M9.36672 5.70005C9.2882 5.70005 9.2129 5.73166 9.15738 5.78792L6.9793 7.99502C6.70953 8.26839 6.27215 8.26839 6.00238 7.99502C5.73261 7.72166 5.73261 7.27844 6.00238 7.00507L8.18045 4.79797C8.49507 4.47915 8.92178 4.30005 9.36672 4.30005H16.444C16.8889 4.30005 17.3156 4.47916 17.6302 4.79797L19.8083 7.00507C20.0781 7.27844 20.0781 7.72166 19.8083 7.99502C19.5385 8.26839 19.1011 8.26839 18.8314 7.99502L16.6533 5.78792C16.5978 5.73166 16.5225 5.70005 16.444 5.70005H9.36672Z" fill="#00B2B6"/>
<path fill-rule="evenodd" clip-rule="evenodd" d="M18 14.7C16.7298 14.7 15.7 15.7298 15.7 17C15.7 18.2703 16.7298 19.3 18 19.3C19.2703 19.3 20.3 18.2703 20.3 17C20.3 15.7298 19.2703 14.7 18 14.7ZM14.3 17C14.3 14.9566 15.9566 13.3 18 13.3C20.0435 13.3 21.7 14.9566 21.7 17C21.7 19.0435 20.0435 20.7 18 20.7C15.9566 20.7 14.3 19.0435 14.3 17Z" fill="#00B2B6"/>
<path fill-rule="evenodd" clip-rule="evenodd" d="M20.0051 19.0051C20.2784 18.7317 20.7217 18.7317 20.995 19.0051L22.495 20.5051C22.7684 20.7784 22.7684 21.2217 22.495 21.495C22.2217 21.7684 21.7784 21.7684 21.5051 21.495L20.0051 19.995C19.7317 19.7217 19.7317 19.2784 20.0051 19.0051Z" fill="#00B2B6"/>
<path fill-rule="evenodd" clip-rule="evenodd" d="M7.80005 11.5C7.80005 11.1134 8.11345 10.8 8.50005 10.8H13.5C13.8866 10.8 14.2 11.1134 14.2 11.5C14.2 11.8866 13.8866 12.2 13.5 12.2H8.50005C8.11345 12.2 7.80005 11.8866 7.80005 11.5Z" fill="#00B2B6"/>
<path fill-rule="evenodd" clip-rule="evenodd" d="M7.80005 14.5C7.80005 14.1134 8.11345 13.8 8.50005 13.8H10.5C10.8866 13.8 11.2 14.1134 11.2 14.5C11.2 14.8866 10.8866 15.2 10.5 15.2H8.50005C8.11345 15.2 7.80005 14.8866 7.80005 14.5Z" fill="#00B2B6"/>

</symbol>
<symbol id="btn-upload-h" viewBox="0 0 24 24">
<path d="M5 12H19" stroke="white" stroke-width="1.4" stroke-linecap="round"/>
<path d="M12 19V5" stroke="white" stroke-width="1.4" stroke-linecap="round"/>

</symbol>
<symbol id="ico-goods-n" viewBox="0 0 24 24"><path fill-rule="evenodd" clip-rule="evenodd" d="M2.736 8.366C3.43 7.467 4.536 6.8 6.118 6.8c1.77 0 2.879.866 3.512 1.913.607 1.004.77 2.153.77 2.837a.7.7 0 1 1-1.4 0c0-.516-.132-1.392-.568-2.113C8.022 8.76 7.34 8.2 6.118 8.2c-1.137 0-1.84.458-2.274 1.022A3.217 3.217 0 0 0 3.2 11.1c0 .54.19 1.284.65 1.877C4.287 13.543 4.99 14 6.117 14H20.95a.7.7 0 1 1 0 1.4H6.118c-1.573 0-2.68-.668-3.375-1.565A4.61 4.61 0 0 1 1.8 11.1c0-.807.263-1.864.936-2.734z"/><path fill-rule="evenodd" clip-rule="evenodd" d="M13.75 2.3a.7.7 0 0 1 .7.7v11.5a.7.7 0 1 1-1.4 0V3a.7.7 0 0 1 .7-.7zM13.768 16.7a.7.7 0 0 1 .7.7V21a.7.7 0 1 1-1.4 0v-3.6a.7.7 0 0 1 .7-.7zM8.268 14.8a.7.7 0 0 1 .7.7V21a.7.7 0 1 1-1.4 0v-5.5a.7.7 0 0 1 .7-.7z"/><path fill-rule="evenodd" clip-rule="evenodd" d="M13.75 4.036l2.234 2.437a.7.7 0 1 0 1.032-.946l-2.603-2.84a.9.9 0 0 0-1.327 0l-2.602 2.84a.7.7 0 0 0 1.032.946l2.234-2.437zM20.842 14.71L18.509 17a.7.7 0 1 0 .982 1l2.702-2.655a.9.9 0 0 0-.012-1.296l-2.7-2.557a.7.7 0 0 0-.962 1.016l2.323 2.201z"/>
</symbol>
<symbol id="ico-order-s" viewBox="0 0 24 24">
<path fill-rule="evenodd" clip-rule="evenodd" d="M3.2998 6.00005C3.2998 5.06116 4.06092 4.30005 4.99981 4.30005H11.1722C11.5588 4.30005 11.8722 4.61345 11.8722 5.00005C11.8722 5.38665 11.5588 5.70005 11.1722 5.70005H4.99981C4.83412 5.70005 4.6998 5.83436 4.6998 6.00005V20C4.6998 20.1657 4.83412 20.3 4.9998 20.3H18.9998C19.1655 20.3 19.2998 20.1657 19.2998 20V11C19.2998 10.6134 19.6132 10.3 19.9998 10.3C20.3864 10.3 20.6998 10.6134 20.6998 11V20C20.6998 20.9389 19.9387 21.7001 18.9998 21.7001H4.9998C4.06092 21.7001 3.2998 20.9389 3.2998 20V6.00005Z"/>
<path fill-rule="evenodd" clip-rule="evenodd" d="M8.2998 12C8.2998 11.6134 8.61321 11.3 8.9998 11.3H14.9998C15.3864 11.3 15.6998 11.6134 15.6998 12C15.6998 12.3866 15.3864 12.7 14.9998 12.7H8.9998C8.61321 12.7 8.2998 12.3866 8.2998 12Z"/>
<path fill-rule="evenodd" clip-rule="evenodd" d="M8.2998 16.5C8.2998 16.1134 8.61321 15.8 8.9998 15.8H14.9998C15.3864 15.8 15.6998 16.1134 15.6998 16.5C15.6998 16.8866 15.3864 17.2 14.9998 17.2H8.9998C8.61321 17.2 8.2998 16.8866 8.2998 16.5Z"/>
<path fill-rule="evenodd" clip-rule="evenodd" d="M16.9998 3.70005C15.7295 3.70005 14.6998 4.72979 14.6998 6.00005C14.6998 7.2703 15.7295 8.30005 16.9998 8.30005C18.2701 8.30005 19.2998 7.2703 19.2998 6.00005C19.2998 4.72979 18.2701 3.70005 16.9998 3.70005ZM13.2998 6.00005C13.2998 3.9566 14.9564 2.30005 16.9998 2.30005C19.0433 2.30005 20.6998 3.9566 20.6998 6.00005C20.6998 8.0435 19.0433 9.70005 16.9998 9.70005C14.9564 9.70005 13.2998 8.0435 13.2998 6.00005Z"/>

</symbol>
<symbol id="ico-search-h" viewBox="0 0 24 24">
<path fill-rule="evenodd" clip-rule="evenodd" d="M17.0051 16.505C17.2784 16.2316 17.7217 16.2316 17.995 16.505L21.495 20.005C21.7684 20.2784 21.7684 20.7216 21.495 20.995C21.2217 21.2683 20.7784 21.2683 20.5051 20.995L17.0051 17.495C16.7317 17.2216 16.7317 16.7784 17.0051 16.505Z" fill="#657683"/>
<path fill-rule="evenodd" clip-rule="evenodd" d="M12 3.69999C7.96837 3.69999 4.70005 6.96831 4.70005 11C4.70005 15.0317 7.96837 18.3 12 18.3C12.9883 18.3 13.929 18.104 14.7867 17.7494C15.144 17.6017 15.5534 17.7717 15.701 18.1289C15.8487 18.4862 15.6788 18.8956 15.3216 19.0433C14.2972 19.4667 13.175 19.7 12 19.7C7.19517 19.7 3.30005 15.8049 3.30005 11C3.30005 6.19511 7.19517 2.29999 12 2.29999C16.8049 2.29999 20.7001 6.19511 20.7001 11C20.7001 13.488 19.6548 15.733 17.9814 17.3177C17.7007 17.5836 17.2576 17.5715 16.9918 17.2908C16.726 17.0101 16.738 16.5671 17.0187 16.3012C18.4246 14.9698 19.3 13.0877 19.3 11C19.3 6.96831 16.0317 3.69999 12 3.69999Z" fill="#657683"/>

</symbol></svg>