<?xml version="1.0" encoding="utf-8"?>
<svg xmlns="http://www.w3.org/2000/svg">
<symbol id="ico-goods-n" viewBox="0 0 24 24"><path fill-rule="evenodd" clip-rule="evenodd" d="M2.736 8.366C3.43 7.467 4.536 6.8 6.118 6.8c1.77 0 2.879.866 3.512 1.913.607 1.004.77 2.153.77 2.837a.7.7 0 1 1-1.4 0c0-.516-.132-1.392-.568-2.113C8.022 8.76 7.34 8.2 6.118 8.2c-1.137 0-1.84.458-2.274 1.022A3.217 3.217 0 0 0 3.2 11.1c0 .54.19 1.284.65 1.877C4.287 13.543 4.99 14 6.117 14H20.95a.7.7 0 1 1 0 1.4H6.118c-1.573 0-2.68-.668-3.375-1.565A4.61 4.61 0 0 1 1.8 11.1c0-.807.263-1.864.936-2.734z"/><path fill-rule="evenodd" clip-rule="evenodd" d="M13.75 2.3a.7.7 0 0 1 .7.7v11.5a.7.7 0 1 1-1.4 0V3a.7.7 0 0 1 .7-.7zM13.768 16.7a.7.7 0 0 1 .7.7V21a.7.7 0 1 1-1.4 0v-3.6a.7.7 0 0 1 .7-.7zM8.268 14.8a.7.7 0 0 1 .7.7V21a.7.7 0 1 1-1.4 0v-5.5a.7.7 0 0 1 .7-.7z"/><path fill-rule="evenodd" clip-rule="evenodd" d="M13.75 4.036l2.234 2.437a.7.7 0 1 0 1.032-.946l-2.603-2.84a.9.9 0 0 0-1.327 0l-2.602 2.84a.7.7 0 0 0 1.032.946l2.234-2.437zM20.842 14.71L18.509 17a.7.7 0 1 0 .982 1l2.702-2.655a.9.9 0 0 0-.012-1.296l-2.7-2.557a.7.7 0 0 0-.962 1.016l2.323 2.201z"/>
</symbol>
<symbol id="ico-order-s" viewBox="0 0 24 24">
<path fill-rule="evenodd" clip-rule="evenodd" d="M3.2998 6.00005C3.2998 5.06116 4.06092 4.30005 4.99981 4.30005H11.1722C11.5588 4.30005 11.8722 4.61345 11.8722 5.00005C11.8722 5.38665 11.5588 5.70005 11.1722 5.70005H4.99981C4.83412 5.70005 4.6998 5.83436 4.6998 6.00005V20C4.6998 20.1657 4.83412 20.3 4.9998 20.3H18.9998C19.1655 20.3 19.2998 20.1657 19.2998 20V11C19.2998 10.6134 19.6132 10.3 19.9998 10.3C20.3864 10.3 20.6998 10.6134 20.6998 11V20C20.6998 20.9389 19.9387 21.7001 18.9998 21.7001H4.9998C4.06092 21.7001 3.2998 20.9389 3.2998 20V6.00005Z"/>
<path fill-rule="evenodd" clip-rule="evenodd" d="M8.2998 12C8.2998 11.6134 8.61321 11.3 8.9998 11.3H14.9998C15.3864 11.3 15.6998 11.6134 15.6998 12C15.6998 12.3866 15.3864 12.7 14.9998 12.7H8.9998C8.61321 12.7 8.2998 12.3866 8.2998 12Z"/>
<path fill-rule="evenodd" clip-rule="evenodd" d="M8.2998 16.5C8.2998 16.1134 8.61321 15.8 8.9998 15.8H14.9998C15.3864 15.8 15.6998 16.1134 15.6998 16.5C15.6998 16.8866 15.3864 17.2 14.9998 17.2H8.9998C8.61321 17.2 8.2998 16.8866 8.2998 16.5Z"/>
<path fill-rule="evenodd" clip-rule="evenodd" d="M16.9998 3.70005C15.7295 3.70005 14.6998 4.72979 14.6998 6.00005C14.6998 7.2703 15.7295 8.30005 16.9998 8.30005C18.2701 8.30005 19.2998 7.2703 19.2998 6.00005C19.2998 4.72979 18.2701 3.70005 16.9998 3.70005ZM13.2998 6.00005C13.2998 3.9566 14.9564 2.30005 16.9998 2.30005C19.0433 2.30005 20.6998 3.9566 20.6998 6.00005C20.6998 8.0435 19.0433 9.70005 16.9998 9.70005C14.9564 9.70005 13.2998 8.0435 13.2998 6.00005Z"/>

</symbol></svg>