<svg width="24" height="24" viewBox="0 0 24 24"  xmlns="http://www.w3.org/2000/svg">
<path fill-rule="evenodd" clip-rule="evenodd" d="M5.00005 9.30005C5.38665 9.30005 5.70005 9.61345 5.70005 10V17.3H18.3V10C18.3 9.61345 18.6134 9.30005 19 9.30005C19.3866 9.30005 19.7 9.61345 19.7 10V18.7H4.30005V10C4.30005 9.61345 4.61345 9.30005 5.00005 9.30005Z" />
<path fill-rule="evenodd" clip-rule="evenodd" d="M12 6.30005C12.3866 6.30005 12.7 6.61345 12.7 7.00005V14C12.7 14.3866 12.3866 14.7 12 14.7C11.6134 14.7 11.3 14.3866 11.3 14V7.00005C11.3 6.61345 11.6134 6.30005 12 6.30005Z" />
<path d="M9.01213 7.48787L11.7879 4.71213C11.905 4.59497 12.095 4.59497 12.2121 4.71213L14.9879 7.48787C15.1769 7.67686 15.043 8 14.7757 8H9.22426C8.95699 8 8.82314 7.67686 9.01213 7.48787Z" />
</svg>
