<svg width="24" height="24" viewBox="0 0 24 24" fill="none" xmlns="http://www.w3.org/2000/svg">
<circle cx="12" cy="12" r="12" fill="#123046" fill-opacity="0.1"/>
<path fill-rule="evenodd" clip-rule="evenodd" d="M5.65982 13.7419C6.02423 13.7419 6.31964 14.0452 6.31964 14.4194V16.6451H18.1964V14.4194C18.1964 14.0452 18.4918 13.7419 18.8562 13.7419C19.2206 13.7419 19.516 14.0452 19.516 14.4194V18H5V14.4194C5 14.0452 5.29541 13.7419 5.65982 13.7419Z" fill="white"/>
<path fill-rule="evenodd" clip-rule="evenodd" d="M12.258 14.1289C12.6321 14.1289 12.9354 13.8256 12.9354 13.4515V6.67735C12.9354 6.30323 12.6321 5.99994 12.258 5.99994C11.8839 5.99994 11.5806 6.30323 11.5806 6.67735V13.4515C11.5806 13.8256 11.8839 14.1289 12.258 14.1289Z" fill="white"/>
<path d="M10.1777 12.2807L12.0141 14.8516C12.1337 15.0191 12.3827 15.0191 12.5023 14.8516L14.3387 12.2807C14.4805 12.0821 14.3386 11.8063 14.0946 11.8063H10.4218C10.1778 11.8063 10.0359 12.0821 10.1777 12.2807Z" fill="white"/>
</svg>
