<svg width="24" height="24" viewBox="0 0 24 24" fill="none" xmlns="http://www.w3.org/2000/svg">
<path fill-rule="evenodd" clip-rule="evenodd" d="M12 18.7556C15.731 18.7556 18.7556 15.731 18.7556 12C18.7556 8.26901 15.731 5.24444 12 5.24444C8.26901 5.24444 5.24444 8.26901 5.24444 12C5.24444 15.731 8.26901 18.7556 12 18.7556ZM12 20C16.4183 20 20 16.4183 20 12C20 7.58172 16.4183 4 12 4C7.58172 4 4 7.58172 4 12C4 16.4183 7.58172 20 12 20Z" fill="#657683"/>
<path fill-rule="evenodd" clip-rule="evenodd" d="M8.71118 11.9999C8.71118 11.6563 8.98976 11.3777 9.3334 11.3777H14.6667C15.0104 11.3777 15.289 11.6563 15.289 11.9999C15.289 12.3436 15.0104 12.6221 14.6667 12.6221H9.3334C8.98976 12.6221 8.71118 12.3436 8.71118 11.9999Z" fill="#657683"/>
</svg>
