<svg width="24" height="24" viewBox="0 0 24 24" fill="none" xmlns="http://www.w3.org/2000/svg">
<path fill-rule="evenodd" clip-rule="evenodd" d="M18 8.4H6C5.66863 8.4 5.4 8.66863 5.4 9V17.2353C5.4 17.5667 5.66863 17.8353 6 17.8353H18C18.3314 17.8353 18.6 17.5667 18.6 17.2353V9C18.6 8.66863 18.3314 8.4 18 8.4ZM6 7C4.89543 7 4 7.89543 4 9V17.2353C4 18.3399 4.89543 19.2353 6 19.2353H18C19.1046 19.2353 20 18.3399 20 17.2353V9C20 7.89543 19.1046 7 18 7H6Z" fill="#FFBB0B"/>
<path fill-rule="evenodd" clip-rule="evenodd" d="M8.4142 5.70005C8.33464 5.70005 8.25833 5.73166 8.20207 5.78792L5.99496 7.99502C5.7216 8.26839 5.27838 8.26839 5.00501 7.99502C4.73165 7.72166 4.73165 7.27844 5.00501 7.00507L7.21212 4.79797C7.53093 4.47915 7.96333 4.30005 8.4142 4.30005H15.5858C16.0366 4.30005 16.469 4.47916 16.7879 4.79797L18.995 7.00507C19.2683 7.27844 19.2683 7.72166 18.995 7.99502C18.7216 8.26839 18.2784 8.26839 18.005 7.99502L15.7979 5.78792C15.7416 5.73166 15.6653 5.70005 15.5858 5.70005H8.4142Z" fill="#FFBB0B"/>
<path fill-rule="evenodd" clip-rule="evenodd" d="M12 10.3C12.3866 10.3 12.7 10.6134 12.7 11V16C12.7 16.3866 12.3866 16.7 12 16.7C11.6134 16.7 11.3 16.3866 11.3 16V11C11.3 10.6134 11.6134 10.3 12 10.3Z" fill="#FFBB0B"/>
<path fill-rule="evenodd" clip-rule="evenodd" d="M12 10.01L14.495 12.505C14.7683 12.7784 14.7683 13.2216 14.495 13.4949C14.2216 13.7683 13.7784 13.7683 13.505 13.4949L12 11.9899L10.495 13.4949C10.2216 13.7683 9.77838 13.7683 9.50501 13.4949C9.23165 13.2216 9.23165 12.7784 9.50501 12.505L12 10.01Z" fill="#FFBB0B"/>
</svg>
