<svg width="24" height="24" viewBox="0 0 24 24" fill="none" xmlns="http://www.w3.org/2000/svg">
<path fill-rule="evenodd" clip-rule="evenodd" d="M4.79993 8.50005C4.79993 7.56117 5.56104 6.80005 6.49993 6.80005H18.9999C19.9388 6.80005 20.6999 7.56116 20.6999 8.50005V12H19.2999V8.50005C19.2999 8.33436 19.1656 8.20005 18.9999 8.20005H6.49993C6.33424 8.20005 6.19993 8.33436 6.19993 8.50005V18.5C6.19993 18.6657 6.33424 18.8 6.49993 18.8H13.5714V20.2H6.49993C5.56104 20.2 4.79993 19.4389 4.79993 18.5V8.50005Z" fill="#00B2B6"/>
<path fill-rule="evenodd" clip-rule="evenodd" d="M9.36672 5.70005C9.2882 5.70005 9.2129 5.73166 9.15738 5.78792L6.9793 7.99502C6.70953 8.26839 6.27215 8.26839 6.00238 7.99502C5.73261 7.72166 5.73261 7.27844 6.00238 7.00507L8.18045 4.79797C8.49507 4.47915 8.92178 4.30005 9.36672 4.30005H16.444C16.8889 4.30005 17.3156 4.47916 17.6302 4.79797L19.8083 7.00507C20.0781 7.27844 20.0781 7.72166 19.8083 7.99502C19.5385 8.26839 19.1011 8.26839 18.8314 7.99502L16.6533 5.78792C16.5978 5.73166 16.5225 5.70005 16.444 5.70005H9.36672Z" fill="#00B2B6"/>
<path fill-rule="evenodd" clip-rule="evenodd" d="M18 14.7C16.7298 14.7 15.7 15.7298 15.7 17C15.7 18.2703 16.7298 19.3 18 19.3C19.2703 19.3 20.3 18.2703 20.3 17C20.3 15.7298 19.2703 14.7 18 14.7ZM14.3 17C14.3 14.9566 15.9566 13.3 18 13.3C20.0435 13.3 21.7 14.9566 21.7 17C21.7 19.0435 20.0435 20.7 18 20.7C15.9566 20.7 14.3 19.0435 14.3 17Z" fill="#00B2B6"/>
<path fill-rule="evenodd" clip-rule="evenodd" d="M20.0051 19.0051C20.2784 18.7317 20.7217 18.7317 20.995 19.0051L22.495 20.5051C22.7684 20.7784 22.7684 21.2217 22.495 21.495C22.2217 21.7684 21.7784 21.7684 21.5051 21.495L20.0051 19.995C19.7317 19.7217 19.7317 19.2784 20.0051 19.0051Z" fill="#00B2B6"/>
<path fill-rule="evenodd" clip-rule="evenodd" d="M7.80005 11.5C7.80005 11.1134 8.11345 10.8 8.50005 10.8H13.5C13.8866 10.8 14.2 11.1134 14.2 11.5C14.2 11.8866 13.8866 12.2 13.5 12.2H8.50005C8.11345 12.2 7.80005 11.8866 7.80005 11.5Z" fill="#00B2B6"/>
<path fill-rule="evenodd" clip-rule="evenodd" d="M7.80005 14.5C7.80005 14.1134 8.11345 13.8 8.50005 13.8H10.5C10.8866 13.8 11.2 14.1134 11.2 14.5C11.2 14.8866 10.8866 15.2 10.5 15.2H8.50005C8.11345 15.2 7.80005 14.8866 7.80005 14.5Z" fill="#00B2B6"/>
</svg>
