<svg width="24" height="24" viewBox="0 0 24 24" fill="none" xmlns="http://www.w3.org/2000/svg">
<path d="M12 20C7.58906 20 4 16.4109 4 12C4 7.58906 7.58906 4 12 4C16.4109 4 20 7.58906 20 12C20 16.4109 16.4109 20 12 20ZM12 5.33281C8.32344 5.33281 5.33281 8.32344 5.33281 12C5.33281 15.6766 8.32344 18.6672 12 18.6672C15.6766 18.6672 18.6672 15.6766 18.6672 12C18.6672 8.32344 15.6766 5.33281 12 5.33281Z" fill="#FFBB0B"/>
<path d="M15 15.6671C14.85 15.6671 14.6984 15.6171 14.5734 15.5125L11.5734 12.8453C11.4218 12.7187 11.3328 12.5312 11.3328 12.3328V8.99995C11.3328 8.6312 11.6312 8.33276 12 8.33276C12.3687 8.33276 12.6671 8.6312 12.6671 8.99995V12.0218L15.4265 14.489C15.7093 14.725 15.7468 15.1453 15.5125 15.4281C15.3796 15.5843 15.1906 15.6671 15 15.6671Z" fill="#FFBB0B"/>
</svg>
