<svg width="24" height="24" viewBox="0 0 24 24" fill="none" xmlns="http://www.w3.org/2000/svg">
<path fill-rule="evenodd" clip-rule="evenodd" d="M18.7 13.2333C17.3377 13.2333 16.2333 14.3377 16.2333 15.7C16.2333 17.0623 17.3377 18.1667 18.7 18.1667C20.0623 18.1667 21.1667 17.0623 21.1667 15.7C21.1667 14.3377 20.0623 13.2333 18.7 13.2333ZM15 15.7C15 13.6565 16.6565 12 18.7 12C20.7435 12 22.4 13.6565 22.4 15.7C22.4 17.7435 20.7435 19.4 18.7 19.4C16.6565 19.4 15 17.7435 15 15.7Z" fill="#FF9C7C"/>
<path fill-rule="evenodd" clip-rule="evenodd" d="M18.9828 14.5172C19.2494 14.5172 19.4655 14.7334 19.4655 15V16.5172H17.9483C17.6817 16.5172 17.4655 16.3011 17.4655 16.0345C17.4655 15.7679 17.6817 15.5517 17.9483 15.5517H18.5V15C18.5 14.7334 18.7161 14.5172 18.9828 14.5172Z" fill="#FF9C7C"/>
<path fill-rule="evenodd" clip-rule="evenodd" d="M8.20208 5.78792C8.25834 5.73166 8.33465 5.70005 8.41421 5.70005H15.5858C15.6654 5.70005 15.7417 5.73166 15.7979 5.78792L17.01 7.00005H6.98995L8.20208 5.78792ZM4.80805 7.39389C4.82977 7.25158 4.89543 7.11467 5.00503 7.00507L7.21213 4.79797C7.53094 4.47915 7.96335 4.30005 8.41421 4.30005H15.5858C16.0367 4.30005 16.4691 4.47916 16.7879 4.79797L18.995 7.00507C19.1046 7.11467 19.1702 7.25158 19.192 7.39389C19.6823 7.75838 20 8.34211 20 9.00005V11.1821C19.5871 11.0635 19.151 11 18.7 11C18.6666 11 18.6333 11.0003 18.6 11.001V9.00005C18.6 8.66868 18.3314 8.40005 18 8.40005H6C5.66863 8.40005 5.4 8.66868 5.4 9.00005V17.2353C5.4 17.5667 5.66863 17.8353 6 17.8353H14.512C14.7846 18.3691 15.1564 18.8438 15.6029 19.2353H6C4.89543 19.2353 4 18.3399 4 17.2353V9.00005C4 8.34212 4.3177 7.75838 4.80805 7.39389ZM11.3 12.69V16C11.3 16.3866 11.6134 16.7 12 16.7C12.3866 16.7 12.7 16.3866 12.7 16V12.69L13.505 13.495C13.7784 13.7684 14.2216 13.7684 14.495 13.495C14.7683 13.2217 14.7683 12.7784 14.495 12.5051L12.4952 10.5053L12.4948 10.5049L12 10.0101L11.5053 10.5048L11.5047 10.5054L9.50503 12.5051C9.23166 12.7784 9.23166 13.2217 9.50503 13.495C9.77839 13.7684 10.2216 13.7684 10.495 13.495L11.3 12.69Z" fill="#FF9C7C"/>
</svg>
