<svg width="24" height="24" viewBox="0 0 24 24" fill="none" xmlns="http://www.w3.org/2000/svg">
<path fill-rule="evenodd" clip-rule="evenodd" d="M3.30005 4.00005C3.30005 3.06116 4.06117 2.30005 5.00005 2.30005H17C17.9389 2.30005 18.7 3.06116 18.7 4.00005V11H17.3V4.00005C17.3 3.83436 17.1657 3.70005 17 3.70005H5.00005C4.83436 3.70005 4.70005 3.83436 4.70005 4.00005V18C4.70005 18.1657 4.83436 18.3 5.00005 18.3H9.87162V19.7001H5.00005C4.06116 19.7001 3.30005 18.9389 3.30005 18V4.00005Z" fill="#00B2B6"/>
<path fill-rule="evenodd" clip-rule="evenodd" d="M6.30005 7.50005C6.30005 7.11345 6.61345 6.80005 7.00005 6.80005H12C12.3866 6.80005 12.7 7.11345 12.7 7.50005C12.7 7.88665 12.3866 8.20005 12 8.20005H7.00005C6.61345 8.20005 6.30005 7.88665 6.30005 7.50005Z" fill="#00B2B6"/>
<path fill-rule="evenodd" clip-rule="evenodd" d="M6.30005 12C6.30005 11.6134 6.61345 11.3 7.00005 11.3H10C10.3866 11.3 10.7 11.6134 10.7 12C10.7 12.3866 10.3866 12.7 10 12.7H7.00005C6.61345 12.7 6.30005 12.3866 6.30005 12Z" fill="#00B2B6"/>
<path fill-rule="evenodd" clip-rule="evenodd" d="M16 18.6C17.4359 18.6 18.6 17.4359 18.6 16C18.6 14.5641 17.4359 13.4 16 13.4C14.5641 13.4 13.4 14.5641 13.4 16C13.4 17.4359 14.5641 18.6 16 18.6ZM16 20C18.2091 20 20 18.2091 20 16C20 13.7909 18.2091 12 16 12C13.7909 12 12 13.7909 12 16C12 18.2091 13.7909 20 16 20Z" fill="#00B2B6"/>
<path fill-rule="evenodd" clip-rule="evenodd" d="M20.0801 20.5599L18.0801 19.0599L18.9201 17.9399L20.9201 19.4399C21.2294 19.6719 21.292 20.1107 21.0601 20.4199C20.8281 20.7292 20.3894 20.7919 20.0801 20.5599Z" fill="#00B2B6"/>
</svg>
