<svg width="24" height="24" viewBox="0 0 24 24" fill="none" xmlns="http://www.w3.org/2000/svg">
<path d="M18.8396 17.9521C19.0467 17.9521 19.2454 18.0344 19.3918 18.1809C19.5383 18.3273 19.6206 18.526 19.6206 18.7331C19.6206 18.9403 19.5383 19.1389 19.3918 19.2854C19.2454 19.4319 19.0467 19.5142 18.8396 19.5142H5.78103C5.57389 19.5142 5.37523 19.4319 5.22876 19.2854C5.08229 19.1389 5 18.9403 5 18.7331C5 18.526 5.08229 18.3273 5.22876 18.1809C5.37523 18.0344 5.57389 17.9521 5.78103 17.9521H18.8396ZM14.8954 3.74362L18.2085 7.05674C18.3549 7.20321 18.4372 7.40183 18.4372 7.60893C18.4372 7.81603 18.3549 8.01465 18.2085 8.16112L10.4763 15.8933C10.357 16.0127 10.2021 16.0903 10.035 16.1143L6.16892 16.6665C6.049 16.6835 5.92677 16.6723 5.81191 16.6339C5.69704 16.5955 5.59269 16.5309 5.50708 16.4452C5.42148 16.3595 5.35698 16.2551 5.31867 16.1402C5.28036 16.0253 5.2693 15.9031 5.28636 15.7832L5.83776 11.9171C5.86164 11.7497 5.93921 11.5946 6.05879 11.475L13.791 3.74283C13.9374 3.59641 14.1361 3.51416 14.3432 3.51416C14.5503 3.51416 14.7489 3.5972 14.8954 3.74362ZM14.3432 5.3994L7.34749 12.3959L6.97963 14.9733L9.55702 14.6046L16.5519 7.60893L14.3432 5.3994Z" fill="#FF9C7C"/>
</svg>
