<svg width="24" height="24" viewBox="0 0 24 24" fill="none" xmlns="http://www.w3.org/2000/svg">
<path d="M18.8396 17.9522C19.0467 17.9522 19.2454 18.0345 19.3918 18.181C19.5383 18.3275 19.6206 18.5261 19.6206 18.7333C19.6206 18.9404 19.5383 19.1391 19.3918 19.2855C19.2454 19.432 19.0467 19.5143 18.8396 19.5143H5.78103C5.57389 19.5143 5.37523 19.432 5.22876 19.2855C5.08229 19.1391 5 18.9404 5 18.7333C5 18.5261 5.08229 18.3275 5.22876 18.181C5.37523 18.0345 5.57389 17.9522 5.78103 17.9522H18.8396ZM14.8954 3.74374L18.2085 7.05686C18.3549 7.20333 18.4372 7.40195 18.4372 7.60905C18.4372 7.81615 18.3549 8.01477 18.2085 8.16124L10.4763 15.8934C10.357 16.0129 10.2021 16.0904 10.035 16.1145L6.16892 16.6666C6.049 16.6836 5.92677 16.6724 5.81191 16.634C5.69704 16.5956 5.59269 16.531 5.50708 16.4453C5.42148 16.3597 5.35698 16.2552 5.31867 16.1403C5.28036 16.0254 5.2693 15.9032 5.28636 15.7833L5.83776 11.9172C5.86164 11.7498 5.93921 11.5947 6.05879 11.4751L13.791 3.74296C13.9374 3.59654 14.1361 3.51428 14.3432 3.51428C14.5503 3.51428 14.7489 3.59732 14.8954 3.74374ZM14.3432 5.39952L7.34749 12.396L6.97963 14.9734L9.55702 14.6047L16.5519 7.60905L14.3432 5.39952Z" fill="#FF9C7C"/>
</svg>
