<svg width="32" height="32" viewBox="0 0 32 32" fill="none" xmlns="http://www.w3.org/2000/svg">
<path d="M27.5709 6.0395H17.158C16.5117 6.0395 15.8833 5.82406 15.237 5.19569L12.0592 2.64632C11.4129 2.21544 10.7846 2 10.1382 2H4.19569C2.49013 2 1 3.49013 1 5.19569V26.0215C1 27.7271 2.49013 29.2172 4.19569 29.2172H27.8043C29.5099 29.2172 31 27.7271 31 26.0215V9.23519C30.7666 7.31418 29.2765 6.0395 27.5709 6.0395Z" fill="#DAECED"/>
<path fill-rule="evenodd" clip-rule="evenodd" d="M7.8 13C7.8 12.6134 8.1134 12.3 8.5 12.3H23.5C23.8866 12.3 24.2 12.6134 24.2 13C24.2 13.3866 23.8866 13.7 23.5 13.7H8.5C8.1134 13.7 7.8 13.3866 7.8 13Z" fill="white"/>
</svg>
