<svg width="24" height="24" viewBox="0 0 24 24"  xmlns="http://www.w3.org/2000/svg"><path fill-rule="evenodd" clip-rule="evenodd" d="M2.736 8.366C3.43 7.467 4.536 6.8 6.118 6.8c1.77 0 2.879.866 3.512 1.913.607 1.004.77 2.153.77 2.837a.7.7 0 1 1-1.4 0c0-.516-.132-1.392-.568-2.113C8.022 8.76 7.34 8.2 6.118 8.2c-1.137 0-1.84.458-2.274 1.022A3.217 3.217 0 0 0 3.2 11.1c0 .54.19 1.284.65 1.877C4.287 13.543 4.99 14 6.117 14H20.95a.7.7 0 1 1 0 1.4H6.118c-1.573 0-2.68-.668-3.375-1.565A4.61 4.61 0 0 1 1.8 11.1c0-.807.263-1.864.936-2.734z" /><path fill-rule="evenodd" clip-rule="evenodd" d="M13.75 2.3a.7.7 0 0 1 .7.7v11.5a.7.7 0 1 1-1.4 0V3a.7.7 0 0 1 .7-.7zM13.768 16.7a.7.7 0 0 1 .7.7V21a.7.7 0 1 1-1.4 0v-3.6a.7.7 0 0 1 .7-.7zM8.268 14.8a.7.7 0 0 1 .7.7V21a.7.7 0 1 1-1.4 0v-5.5a.7.7 0 0 1 .7-.7z" /><path fill-rule="evenodd" clip-rule="evenodd" d="M13.75 4.036l2.234 2.437a.7.7 0 1 0 1.032-.946l-2.603-2.84a.9.9 0 0 0-1.327 0l-2.602 2.84a.7.7 0 0 0 1.032.946l2.234-2.437zM20.842 14.71L18.509 17a.7.7 0 1 0 .982 1l2.702-2.655a.9.9 0 0 0-.012-1.296l-2.7-2.557a.7.7 0 0 0-.962 1.016l2.323 2.201z" /></svg>