<svg width="24" height="24" viewBox="0 0 24 24" fill="none" xmlns="http://www.w3.org/2000/svg">
<path fill-rule="evenodd" clip-rule="evenodd" d="M17.0051 16.505C17.2784 16.2316 17.7217 16.2316 17.995 16.505L21.495 20.005C21.7684 20.2784 21.7684 20.7216 21.495 20.995C21.2217 21.2683 20.7784 21.2683 20.5051 20.995L17.0051 17.495C16.7317 17.2216 16.7317 16.7784 17.0051 16.505Z" fill="#657683"/>
<path fill-rule="evenodd" clip-rule="evenodd" d="M12 3.69999C7.96837 3.69999 4.70005 6.96831 4.70005 11C4.70005 15.0317 7.96837 18.3 12 18.3C12.9883 18.3 13.929 18.104 14.7867 17.7494C15.144 17.6017 15.5534 17.7717 15.701 18.1289C15.8487 18.4862 15.6788 18.8956 15.3216 19.0433C14.2972 19.4667 13.175 19.7 12 19.7C7.19517 19.7 3.30005 15.8049 3.30005 11C3.30005 6.19511 7.19517 2.29999 12 2.29999C16.8049 2.29999 20.7001 6.19511 20.7001 11C20.7001 13.488 19.6548 15.733 17.9814 17.3177C17.7007 17.5836 17.2576 17.5715 16.9918 17.2908C16.726 17.0101 16.738 16.5671 17.0187 16.3012C18.4246 14.9698 19.3 13.0877 19.3 11C19.3 6.96831 16.0317 3.69999 12 3.69999Z" fill="#657683"/>
</svg>
